<svg xmlns="http://www.w3.org/2000/svg" viewBox="0 0 128 128" role="img" aria-label="默认用户头像">
  <defs>
    <linearGradient id="background" x1="14" y1="10" x2="112" y2="118" gradientUnits="userSpaceOnUse">
      <stop stop-color="#5B8FF9"/>
      <stop offset="0.52" stop-color="#7262FD"/>
      <stop offset="1" stop-color="#B37FEB"/>
    </linearGradient>
    <linearGradient id="shirt" x1="38" y1="77" x2="91" y2="123" gradientUnits="userSpaceOnUse">
      <stop stop-color="#E8F1FF"/>
      <stop offset="1" stop-color="#C9D8FF"/>
    </linearGradient>
    <filter id="shadow" x="-20%" y="-20%" width="140%" height="140%">
      <feDropShadow dx="0" dy="3" stdDeviation="4" flood-color="#26376B" flood-opacity=".22"/>
    </filter>
  </defs>
  <circle cx="64" cy="64" r="62" fill="url(#background)"/>
  <circle cx="64" cy="64" r="58" fill="none" stroke="#fff" stroke-opacity=".28" stroke-width="2"/>
  <g filter="url(#shadow)">
    <circle cx="64" cy="48" r="23" fill="#FFE2C6"/>
    <path d="M42 47c1-19 10-29 23-29 15 0 24 11 23 31-6-2-12-7-16-14-7 7-17 11-30 12Z" fill="#293A70"/>
    <path d="M31 111c2-28 15-42 33-42s31 14 33 42H31Z" fill="url(#shirt)"/>
    <path d="M54 71c2 6 5 10 10 10s8-4 10-10c-3-1-6-2-10-2s-7 1-10 2Z" fill="#F3C7AA"/>
  </g>
  <circle cx="104" cy="103" r="15" fill="#fff"/>
  <path d="m98 103 4 4 8-9" fill="none" stroke="#52C41A" stroke-linecap="round" stroke-linejoin="round" stroke-width="4"/>
</svg>
