<?xml version="1.0" standalone="no"?><!DOCTYPE svg PUBLIC "-//W3C//DTD SVG 1.1//EN" "http://www.w3.org/Graphics/SVG/1.1/DTD/svg11.dtd"><svg t="1776138391396" class="icon" viewBox="0 0 1024 1024" version="1.1" xmlns="http://www.w3.org/2000/svg" p-id="3759" xmlns:xlink="http://www.w3.org/1999/xlink" width="200" height="200"><path d="M556.930612 929.959184c-27.167347 0-52.244898-8.881633-68.440816-25.6-26.644898-27.167347-38.138776-74.187755-50.155102-123.29796-6.791837-27.689796-14.628571-59.036735-22.465306-72.620408-21.942857-37.616327-68.963265-56.946939-82.546939-61.648979H257.044898c-27.167347 0-49.110204-21.942857-49.110204-49.110204v-397.061225c0-27.167347 21.942857-49.110204 49.110204-49.110204h71.57551c30.82449-16.195918 118.595918-56.946939 219.428572-56.946939h191.216326c31.346939 0 97.17551 11.493878 123.820408 55.902041C888.163265 191.216327 929.959184 512 929.959184 539.689796c0 60.081633-56.946939 106.579592-105.534694 106.579592h-125.910204c-4.179592 0-6.791837 2.612245-8.359184 3.657143-1.044898 1.567347-3.134694 4.702041-2.089796 8.881632 4.702041 21.420408 14.628571 77.844898 7.314286 137.404082-7.314286 61.126531-43.885714 108.669388-97.17551 126.432653-13.583673 5.22449-27.689796 7.314286-41.27347 7.314286zM257.044898 192.783673c-4.179592 0-7.314286 3.134694-7.314286 7.314286v397.061225c0 4.179592 3.134694 7.314286 7.314286 7.314285h83.069388l3.134694 1.044898c12.538776 4.179592 76.8 28.212245 108.146938 81.502041 10.971429 18.808163 18.808163 50.155102 27.167347 83.591837 10.44898 43.885714 20.897959 85.159184 39.706123 103.967347 13.583673 13.583673 40.75102 17.240816 66.873469 8.359184 37.616327-12.538776 63.738776-47.020408 68.963265-91.951021 4.702041-37.093878 2.089796-83.069388-6.791836-123.820408-3.134694-15.673469 0.522449-31.346939 10.448979-43.885714 9.926531-12.538776 24.555102-19.330612 40.751021-19.330613h125.910204c28.212245 0 63.738776-30.302041 63.738775-64.783673 0-42.840816-44.930612-340.636735-60.604081-368.326531-14.628571-24.555102-60.604082-35.526531-88.293878-35.52653h-191.216326c-96.653061 0-180.767347 41.273469-204.277551 54.334694l-4.702041 2.612244H257.044898z" fill="#333333" p-id="3760"></path><path d="M114.938776 629.55102c-11.493878 0-20.897959-9.404082-20.89796-20.897959v-428.408163c0-11.493878 9.404082-20.897959 20.89796-20.897959s20.897959 9.404082 20.897959 20.897959v428.408163c0 11.493878-9.404082 20.897959-20.897959 20.897959z" fill="#333333" p-id="3761"></path></svg>